<svg width="31" height="31" viewBox="0 0 31 31" fill="none" xmlns="http://www.w3.org/2000/svg">
<path fill-rule="evenodd" clip-rule="evenodd" d="M0 9.09212C0 4.07055 4.07007 0 9.09082 0H20.9102C25.9317 0 30.0023 4.07007 30.0023 9.09082V20.9102C30.0023 25.9317 25.9322 30.0023 20.9115 30.0023H9.09212C4.07055 30.0023 0 25.9322 0 20.9115V9.09212ZM9.09082 4C6.27969 4 4 6.27921 4 9.09212V20.9115C4 23.7226 6.27921 26.0023 9.09212 26.0023H20.9115C23.7226 26.0023 26.0023 23.7231 26.0023 20.9102V9.09082C26.0023 6.27969 23.7231 4 20.9102 4H9.09082ZM8.99044 8.99034C10.5846 7.39617 12.7468 6.50058 15.0013 6.50058C17.2557 6.50058 19.4179 7.39617 21.0121 8.99034C22.6062 10.5845 23.5018 12.7467 23.5018 15.0012C23.5018 17.2556 22.6062 19.4178 21.0121 21.012C19.4179 22.6061 17.2557 23.5017 15.0013 23.5017C12.7468 23.5017 10.5846 22.6061 8.99044 21.012C7.39627 19.4178 6.50068 17.2556 6.50068 15.0012C6.50068 12.7467 7.39627 10.5845 8.99044 8.99034ZM15.0013 10.5006C13.8076 10.5006 12.6629 10.9747 11.8189 11.8188C10.9748 12.6628 10.5007 13.8075 10.5007 15.0012C10.5007 16.1948 10.9748 17.3395 11.8189 18.1835C12.6629 19.0276 13.8076 19.5017 15.0013 19.5017C16.1949 19.5017 17.3396 19.0276 18.1836 18.1835C19.0277 17.3395 19.5018 16.1948 19.5018 15.0012C19.5018 13.8075 19.0277 12.6628 18.1836 11.8188C17.3396 10.9747 16.1949 10.5006 15.0013 10.5006ZM21.8478 6.48317C22.0695 6.26154 22.37 6.13702 22.6835 6.13702C22.9969 6.13702 23.2975 6.26154 23.5191 6.48317C23.7408 6.7048 23.8653 7.00539 23.8653 7.31883C23.8653 7.63226 23.7408 7.93286 23.5191 8.15449C23.2975 8.37612 22.9969 8.50063 22.6835 8.50063C22.37 8.50063 22.0695 8.37612 21.8478 8.15449C21.6262 7.93286 21.5017 7.63226 21.5017 7.31883C21.5017 7.00539 21.6262 6.7048 21.8478 6.48317Z" fill="white" fill-opacity="0.8"/>
</svg>
